<svg id="SvgjsSvg1001" width="288" height="288" xmlns="http://www.w3.org/2000/svg" version="1.1" xmlns:xlink="http://www.w3.org/1999/xlink" xmlns:svgjs="http://svgjs.com/svgjs"><defs id="SvgjsDefs1002"></defs><g id="SvgjsG1008"><svg xmlns="http://www.w3.org/2000/svg" class="ionicon" viewBox="0 0 512 512" width="288" height="288"><path fill="none" stroke="#ffffff" stroke-miterlimit="10" stroke-width="32" d="M256 48C141.13 48 48 141.13 48 256s93.13 208 208 208 208-93.13 208-208S370.87 48 256 48z" class="colorStrokecurrentColor svgStroke"></path><path fill="none" stroke="#ffffff" stroke-miterlimit="10" stroke-width="32" d="M256 48c-58.07 0-112.67 93.13-112.67 208S197.93 464 256 464s112.67-93.13 112.67-208S314.07 48 256 48z" class="colorStrokecurrentColor svgStroke"></path><path fill="none" stroke="#ffffff" stroke-linecap="round" stroke-linejoin="round" stroke-width="32" d="M117.33 117.33c38.24 27.15 86.38 43.34 138.67 43.34s100.43-16.19 138.67-43.34M394.67 394.67c-38.24-27.15-86.38-43.34-138.67-43.34s-100.43 16.19-138.67 43.34" class="colorStrokecurrentColor svgStroke"></path><path fill="none" stroke="#ffffff" stroke-miterlimit="10" stroke-width="32" d="M256 48v416M464 256H48" class="colorStrokecurrentColor svgStroke"></path></svg></g></svg>